<svg xmlns="http://www.w3.org/2000/svg" viewBox="0 0 1200 760" role="img" aria-label="Cell fate phase-space illustration">
  <defs>
    <linearGradient id="paper" x1="0" y1="0" x2="1" y2="1">
      <stop offset="0" stop-color="#fff7e9"/>
      <stop offset="0.55" stop-color="#f7ead8"/>
      <stop offset="1" stop-color="#fffaf1"/>
    </linearGradient>
    <radialGradient id="cell" cx="72%" cy="48%" r="34%">
      <stop offset="0" stop-color="#b85a43" stop-opacity=".5"/>
      <stop offset=".42" stop-color="#d6b197" stop-opacity=".24"/>
      <stop offset="1" stop-color="#fff5e8" stop-opacity="0"/>
    </radialGradient>
    <filter id="grain">
      <feTurbulence type="fractalNoise" baseFrequency=".85" numOctaves="3" stitchTiles="stitch"/>
      <feColorMatrix type="saturate" values="0"/>
      <feComponentTransfer>
        <feFuncA type="table" tableValues="0 .12"/>
      </feComponentTransfer>
    </filter>
  </defs>
  <rect width="1200" height="760" fill="url(#paper)"/>
  <rect width="1200" height="760" filter="url(#grain)" opacity=".28"/>
  <rect width="1200" height="760" fill="url(#cell)"/>
  <g fill="none" stroke="#b85a43" stroke-width="1.45" opacity=".34">
    <path d="M53 373C183 238 341 248 461 325c105 67 200 36 312-32 101-61 210-90 384-33"/>
    <path d="M48 421c156-151 327-147 454-59 109 75 204 43 316-33 95-65 194-99 333-79"/>
    <path d="M69 479c176-129 321-107 448-23 113 74 229 43 338-29 86-57 177-81 289-69"/>
    <path d="M107 540c141-79 274-67 392 7 129 82 271 63 382-1 77-45 151-65 228-58"/>
    <path d="M120 304c130-101 255-91 370-15 103 68 197 54 289-3 114-71 229-103 350-93"/>
    <path d="M194 234c114-55 221-39 321 24 85 54 161 52 247 4 117-65 218-82 309-68"/>
  </g>
  <g fill="none" stroke="#5e7257" stroke-width="1.3" stroke-linecap="round" opacity=".62">
    <path d="M126 564C212 351 329 265 469 296c160 35 170 223 358 179"/>
    <path d="M155 538c93-141 194-206 304-188 120 19 157 132 272 127"/>
    <path d="M206 509c82-82 161-113 239-94 86 21 121 83 205 82"/>
    <path d="M414 357l38 21M514 418l36 25M625 470l38 15M318 398l40 4"/>
  </g>
  <g fill="#b85a43" opacity=".62">
    <circle cx="285" cy="396" r="5"/>
    <circle cx="410" cy="352" r="4"/>
    <circle cx="541" cy="429" r="5"/>
    <circle cx="658" cy="488" r="4"/>
    <circle cx="218" cy="501" r="3"/>
  </g>
  <g transform="translate(708 154)" fill="none" stroke="#6c5143" stroke-width="2">
    <circle cx="236" cy="236" r="202" opacity=".48"/>
    <circle cx="236" cy="236" r="96" opacity=".34"/>
    <circle cx="236" cy="236" r="58" fill="#b85a43" opacity=".22" stroke="#b85a43"/>
    <path d="M99 88c57 42 91 93 103 153 11 55 41 98 92 129M76 257c67-30 125-35 174-14 58 24 111 18 160-18M180 48c18 77 16 142-8 195-25 57-18 111 20 164" opacity=".32"/>
  </g>
</svg>
